<svg width="900" height="280" viewBox="0 0 900 280" xmlns="http://www.w3.org/2000/svg">
  <defs>
    <linearGradient id="bg" x1="0%" y1="0%" x2="100%" y2="100%">
      <stop offset="0%" style="stop-color:#0d1117"/>
      <stop offset="40%" style="stop-color:#091526"/>
      <stop offset="100%" style="stop-color:#0d1117"/>
    </linearGradient>
    <linearGradient id="nameGrad" x1="0%" y1="0%" x2="100%" y2="0%">
      <stop offset="0%" style="stop-color:#ffffff"/>
      <stop offset="48%" style="stop-color:#00f7ff"/>
      <stop offset="100%" style="stop-color:#a78bfa"/>
    </linearGradient>
    <linearGradient id="accentLine" x1="0%" y1="0%" x2="100%" y2="0%">
      <stop offset="0%" style="stop-color:transparent"/>
      <stop offset="25%" style="stop-color:#00f7ff"/>
      <stop offset="75%" style="stop-color:#7c3aed"/>
      <stop offset="100%" style="stop-color:transparent"/>
    </linearGradient>
    <radialGradient id="orb1" cx="50%" cy="50%" r="50%">
      <stop offset="0%" style="stop-color:#00f7ff;stop-opacity:0.22"/>
      <stop offset="100%" style="stop-color:#00f7ff;stop-opacity:0"/>
    </radialGradient>
    <radialGradient id="orb2" cx="50%" cy="50%" r="50%">
      <stop offset="0%" style="stop-color:#7c3aed;stop-opacity:0.28"/>
      <stop offset="100%" style="stop-color:#7c3aed;stop-opacity:0"/>
    </radialGradient>
    <radialGradient id="orb3" cx="50%" cy="50%" r="50%">
      <stop offset="0%" style="stop-color:#0062cc;stop-opacity:0.18"/>
      <stop offset="100%" style="stop-color:#0062cc;stop-opacity:0"/>
    </radialGradient>
    <filter id="glow" x="-30%" y="-30%" width="160%" height="160%">
      <feGaussianBlur stdDeviation="2.5" result="blur"/>
      <feMerge><feMergeNode in="blur"/><feMergeNode in="SourceGraphic"/></feMerge>
    </filter>
    <filter id="nameGlow" x="-10%" y="-30%" width="120%" height="160%">
      <feGaussianBlur stdDeviation="5" result="blur"/>
      <feMerge><feMergeNode in="blur"/><feMergeNode in="SourceGraphic"/></feMerge>
    </filter>
    <clipPath id="bannerClip">
      <rect width="900" height="280" rx="14"/>
    </clipPath>
  </defs>

  <g clip-path="url(#bannerClip)">
    <!-- Background -->
    <rect width="900" height="280" fill="url(#bg)"/>

    <!-- Subtle grid -->
    <g opacity="0.055" stroke="#00e5ff" stroke-width="0.5">
      <line x1="0" y1="40" x2="900" y2="40"/>
      <line x1="0" y1="80" x2="900" y2="80"/>
      <line x1="0" y1="120" x2="900" y2="120"/>
      <line x1="0" y1="160" x2="900" y2="160"/>
      <line x1="0" y1="200" x2="900" y2="200"/>
      <line x1="0" y1="240" x2="900" y2="240"/>
      <line x1="40" y1="0" x2="40" y2="280"/>
      <line x1="80" y1="0" x2="80" y2="280"/>
      <line x1="120" y1="0" x2="120" y2="280"/>
      <line x1="160" y1="0" x2="160" y2="280"/>
      <line x1="200" y1="0" x2="200" y2="280"/>
      <line x1="240" y1="0" x2="240" y2="280"/>
      <line x1="280" y1="0" x2="280" y2="280"/>
      <line x1="320" y1="0" x2="320" y2="280"/>
      <line x1="360" y1="0" x2="360" y2="280"/>
      <line x1="400" y1="0" x2="400" y2="280"/>
      <line x1="440" y1="0" x2="440" y2="280"/>
      <line x1="480" y1="0" x2="480" y2="280"/>
      <line x1="520" y1="0" x2="520" y2="280"/>
      <line x1="560" y1="0" x2="560" y2="280"/>
      <line x1="600" y1="0" x2="600" y2="280"/>
      <line x1="640" y1="0" x2="640" y2="280"/>
      <line x1="680" y1="0" x2="680" y2="280"/>
      <line x1="720" y1="0" x2="720" y2="280"/>
      <line x1="760" y1="0" x2="760" y2="280"/>
      <line x1="800" y1="0" x2="800" y2="280"/>
      <line x1="840" y1="0" x2="840" y2="280"/>
      <line x1="880" y1="0" x2="880" y2="280"/>
    </g>

    <!-- Ambient orbs -->
    <ellipse cx="-10" cy="-10" rx="190" ry="190" fill="url(#orb1)">
      <animate attributeName="rx" values="190;230;190" dur="4s" repeatCount="indefinite"/>
      <animate attributeName="ry" values="190;230;190" dur="4s" repeatCount="indefinite"/>
      <animate attributeName="opacity" values="0.8;1;0.8" dur="4s" repeatCount="indefinite"/>
    </ellipse>
    <ellipse cx="830" cy="310" rx="170" ry="170" fill="url(#orb2)">
      <animate attributeName="rx" values="170;210;170" dur="4.5s" begin="1.5s" repeatCount="indefinite"/>
      <animate attributeName="ry" values="170;210;170" dur="4.5s" begin="1.5s" repeatCount="indefinite"/>
      <animate attributeName="opacity" values="0.7;1;0.7" dur="4.5s" begin="1.5s" repeatCount="indefinite"/>
    </ellipse>
    <ellipse cx="660" cy="75" rx="115" ry="115" fill="url(#orb3)">
      <animate attributeName="rx" values="115;145;115" dur="5s" begin="0.8s" repeatCount="indefinite"/>
      <animate attributeName="ry" values="115;145;115" dur="5s" begin="0.8s" repeatCount="indefinite"/>
    </ellipse>

    <!-- Corner brackets -->
    <g stroke="#00f7ff" stroke-width="1.8" fill="none" opacity="0.55">
      <polyline points="14,34 14,14 34,14"/>
      <polyline points="866,14 886,14 886,34"/>
      <polyline points="14,246 14,266 34,266"/>
      <polyline points="866,266 886,266 886,246"/>
    </g>

    <!-- SHIELD ICON -->
    <g transform="translate(46, 94)" filter="url(#glow)">
      <path d="M40 3L5 17V39C5 57.5 20.5 73.5 40 79.5C59.5 73.5 75 57.5 75 39V17L40 3Z"
            fill="rgba(0,247,255,0.07)" stroke="#00f7ff" stroke-width="1.4"/>
      <path d="M40 13L13 25V40C13 54 25 67 40 71C55 67 67 54 67 40V25L40 13Z"
            fill="rgba(0,247,255,0.04)" stroke="rgba(0,247,255,0.28)" stroke-width="1"/>
      <circle cx="40" cy="43" r="10.5" fill="rgba(0,247,255,0.14)" stroke="#00f7ff" stroke-width="1.4">
        <animate attributeName="opacity" values="0.75;1;0.75" dur="2.2s" repeatCount="indefinite"/>
      </circle>
      <rect x="36" y="42" width="8" height="9" rx="1.5" fill="#00f7ff" opacity="0.92"/>
      <path d="M35 42V38C35 34.5 37.2 32 40 32C42.8 32 45 34.5 45 38V42"
            stroke="#00f7ff" stroke-width="2" fill="none" stroke-linecap="round"/>
      <path d="M40 3L5 17V39C5 57.5 20.5 73.5 40 79.5C59.5 73.5 75 57.5 75 39V17L40 3Z"
            fill="none" stroke="#00f7ff" stroke-width="2" opacity="0">
        <animate attributeName="opacity" values="0;0.55;0" dur="2.2s" repeatCount="indefinite"/>
        <animate attributeName="stroke-width" values="2;5;2" dur="2.2s" repeatCount="indefinite"/>
      </path>
    </g>

    <!-- ACTIVE indicator -->
    <circle cx="74" cy="198" r="4" fill="#00f7ff">
      <animate attributeName="opacity" values="1;0.1;1" dur="1.1s" repeatCount="indefinite"/>
    </circle>
    <text x="83" y="202" font-family="'Courier New', monospace" font-size="10" fill="#00f7ff" letter-spacing="1.5">ACTIVE</text>

    <!-- Tagline -->
    <text x="160" y="100" font-family="'Courier New', monospace" font-size="11" fill="#00f7ff" letter-spacing="3.5" opacity="0.85">// CYBERSECURITY · WEB DEV · CTF</text>

    <!-- Name -->
    <text x="157" y="158" font-family="'Arial Black', 'Arial', sans-serif" font-size="52" font-weight="900"
          fill="url(#nameGrad)" filter="url(#nameGlow)" letter-spacing="-0.5">Hemanth Kumar B</text>

    <!-- Pill: Web Security -->
    <rect x="160" y="172" width="118" height="24" rx="12"
          fill="rgba(0,247,255,0.09)" stroke="rgba(0,247,255,0.42)" stroke-width="1"/>
    <text x="169" y="188" font-family="Arial, sans-serif" font-size="11" font-weight="700" fill="#00f7ff">🔐 Web Security</text>

    <!-- Pill: CTF Hunter -->
    <rect x="286" y="172" width="106" height="24" rx="12"
          fill="rgba(124,58,237,0.14)" stroke="rgba(167,139,250,0.48)" stroke-width="1"/>
    <text x="296" y="188" font-family="Arial, sans-serif" font-size="11" font-weight="700" fill="#a78bfa">🏁 CTF Hunter</text>

    <!-- Pill: Dev -->
    <rect x="400" y="172" width="62" height="24" rx="12"
          fill="rgba(59,130,246,0.1)" stroke="rgba(96,165,250,0.42)" stroke-width="1"/>
    <text x="410" y="188" font-family="Arial, sans-serif" font-size="11" font-weight="700" fill="#60a5fa">💻 Dev</text>

    <!-- Stats -->
    <text x="178" y="222" font-family="'Arial Black', sans-serif" font-size="22" font-weight="900" fill="#00f7ff" text-anchor="middle">6+</text>
    <text x="178" y="236" font-family="Arial, sans-serif" font-size="9" fill="rgba(255,255,255,0.38)" letter-spacing="1.2" text-anchor="middle">PODIUMS</text>

    <line x1="215" y1="210" x2="215" y2="242" stroke="rgba(255,255,255,0.1)" stroke-width="1"/>

    <text x="250" y="222" font-family="'Arial Black', sans-serif" font-size="22" font-weight="900" fill="#00f7ff" text-anchor="middle">2×</text>
    <text x="250" y="236" font-family="Arial, sans-serif" font-size="9" fill="rgba(255,255,255,0.38)" letter-spacing="1.2" text-anchor="middle">🥇 GOLD</text>

    <line x1="288" y1="210" x2="288" y2="242" stroke="rgba(255,255,255,0.1)" stroke-width="1"/>

    <text x="333" y="222" font-family="'Arial Black', sans-serif" font-size="22" font-weight="900" fill="#00f7ff" text-anchor="middle">3+</text>
    <text x="333" y="236" font-family="Arial, sans-serif" font-size="9" fill="rgba(255,255,255,0.38)" letter-spacing="1.2" text-anchor="middle">INTERNSHIPS</text>

    <line x1="375" y1="210" x2="375" y2="242" stroke="rgba(255,255,255,0.1)" stroke-width="1"/>

    <text x="410" y="222" font-family="'Arial Black', sans-serif" font-size="22" font-weight="900" fill="#00f7ff" text-anchor="middle">CSE</text>
    <text x="410" y="236" font-family="Arial, sans-serif" font-size="9" fill="rgba(255,255,255,0.38)" letter-spacing="1.2" text-anchor="middle">CYBER SEC</text>

    <!-- TERMINAL CARD -->
    <rect x="665" y="48" width="218" height="186" rx="9"
          fill="rgba(5,8,14,0.72)" stroke="rgba(0,247,255,0.22)" stroke-width="1"/>
    <rect x="665" y="48" width="218" height="30" rx="9" fill="rgba(0,247,255,0.07)"/>
    <rect x="665" y="68" width="218" height="10" fill="rgba(0,247,255,0.07)"/>
    <line x1="665" y1="78" x2="883" y2="78" stroke="rgba(0,247,255,0.14)" stroke-width="1"/>

    <circle cx="682" cy="63" r="5" fill="#ff5f57"/>
    <circle cx="698" cy="63" r="5" fill="#febc2e"/>
    <circle cx="714" cy="63" r="5" fill="#28c840"/>
    <text x="726" y="67" font-family="'Courier New', monospace" font-size="9" fill="rgba(255,255,255,0.32)" letter-spacing="1">terminal</text>

    <text x="678" y="101" font-family="'Courier New', monospace" font-size="10.5" fill="#00f7ff">$ </text>
    <text x="693" y="101" font-family="'Courier New', monospace" font-size="10.5" fill="#e8eaf0">nmap -sV target</text>

    <text x="678" y="117" font-family="'Courier New', monospace" font-size="9.5" fill="rgba(255,255,255,0.4)">Scanning...</text>

    <text x="678" y="133" font-family="'Courier New', monospace" font-size="10.5" fill="#28c840">PORT 443 OPEN ✓</text>

    <text x="678" y="153" font-family="'Courier New', monospace" font-size="10.5" fill="#00f7ff">$ </text>
    <text x="693" y="153" font-family="'Courier New', monospace" font-size="10.5" fill="#e8eaf0">whoami</text>

    <text x="678" y="169" font-family="'Courier New', monospace" font-size="10.5" fill="#a78bfa">N1ght_M4r3_d4rk</text>

    <text x="678" y="189" font-family="'Courier New', monospace" font-size="10.5" fill="#00f7ff">$ </text>
    <text x="693" y="189" font-family="'Courier New', monospace" font-size="10.5" fill="#e8eaf0">cat flag.txt</text>

    <text x="678" y="207" font-family="'Courier New', monospace" font-size="10.5" fill="#28c840">flag{h3m4nth_w1ns}</text>

    <rect x="678" y="215" width="7" height="12" fill="#00f7ff" rx="1">
      <animate attributeName="opacity" values="1;0;1" dur="1s" repeatCount="indefinite"/>
    </rect>

    <!-- Floating particles -->
    <circle cx="200" cy="280" r="2" fill="#00f7ff" opacity="0">
      <animate attributeName="cy" values="280;-10" dur="6s" repeatCount="indefinite"/>
      <animate attributeName="opacity" values="0;0.55;0.3;0" dur="6s" repeatCount="indefinite"/>
    </circle>
    <circle cx="350" cy="280" r="2" fill="#a78bfa" opacity="0">
      <animate attributeName="cy" values="280;-10" dur="8s" begin="1s" repeatCount="indefinite"/>
      <animate attributeName="opacity" values="0;0.55;0.3;0" dur="8s" begin="1s" repeatCount="indefinite"/>
    </circle>
    <circle cx="500" cy="280" r="2" fill="#00f7ff" opacity="0">
      <animate attributeName="cy" values="280;-10" dur="5s" begin="2s" repeatCount="indefinite"/>
      <animate attributeName="opacity" values="0;0.55;0.3;0" dur="5s" begin="2s" repeatCount="indefinite"/>
    </circle>
    <circle cx="620" cy="280" r="1.5" fill="#a78bfa" opacity="0">
      <animate attributeName="cy" values="280;-10" dur="7s" begin="0.5s" repeatCount="indefinite"/>
      <animate attributeName="opacity" values="0;0.55;0.3;0" dur="7s" begin="0.5s" repeatCount="indefinite"/>
    </circle>

    <!-- Bottom accent line -->
    <rect x="0" y="277" width="900" height="3" fill="url(#accentLine)"/>
  </g>
</svg>
